<?xml version="1.0" standalone="no"?>
<!DOCTYPE svg PUBLIC "-//W3C//DTD SVG 20010904//EN"
 "http://www.w3.org/TR/2001/REC-SVG-20010904/DTD/svg10.dtd">
<svg version="1.0" xmlns="http://www.w3.org/2000/svg"
 width="810.000000pt" height="810.000000pt" viewBox="0 0 810.000000 810.000000"
 preserveAspectRatio="xMidYMid meet">
<metadata>
Created by potrace 1.14, written by Peter Selinger 2001-2017
</metadata>
<g transform="translate(0.000000,810.000000) scale(0.100000,-0.100000)"
fill="#000000" stroke="none">
<path d="M2175 8086 c-95 -23 -129 -47 -229 -166 -31 -36 -87 -140 -105 -193
-15 -42 -19 -78 -17 -135 2 -68 8 -89 42 -157 24 -50 59 -100 94 -136 82 -83
122 -100 245 -104 55 -2 78 2 109 19 65 35 94 98 87 189 -1 16 -31 26 -31 10
0 -12 -81 -60 -114 -67 -37 -9 -91 9 -109 38 -37 56 -38 146 -3 220 34 70 47
85 102 111 81 39 166 14 244 -71 43 -48 90 -119 90 -137 0 -7 4 -17 9 -23 12
-13 39 -92 46 -134 3 -19 8 -48 12 -65 3 -16 6 -96 7 -177 l1 -147 122 0 c158
0 150 -12 152 229 2 218 -29 397 -100 581 -28 73 -100 180 -135 202 -7 4 -19
13 -26 20 -33 33 -122 74 -199 93 -47 12 -245 11 -294 0z"/>
<path d="M3984 8083 c-151 -51 -198 -240 -90 -365 54 -64 177 -86 257 -47 85
42 129 120 124 219 -3 50 -9 68 -37 107 -59 82 -162 117 -254 86z"/>
<path d="M5707 8094 c-1 -1 -22 -4 -47 -7 -72 -10 -86 -14 -152 -46 -132 -64
-190 -141 -274 -366 -19 -53 -48 -199 -60 -310 -12 -114 -2 -393 15 -396 20
-4 248 -4 259 -1 7 3 10 12 7 23 -9 27 -9 224 -1 284 12 88 15 101 42 171 68
182 173 286 291 287 44 1 59 -4 90 -30 45 -35 91 -98 99 -133 11 -51 11 -116
0 -155 -9 -30 -20 -44 -46 -56 -62 -30 -125 -14 -192 49 -15 14 -30 24 -32 21
-8 -7 -8 -93 -1 -126 9 -40 58 -90 99 -102 17 -5 68 -7 114 -6 147 5 223 63
319 242 31 58 37 79 39 144 6 148 -46 262 -184 402 -73 75 -112 94 -203 103
-76 7 -178 11 -182 8z"/>
<path d="M3427 8016 c-46 -17 -61 -29 -88 -73 -38 -61 -30 -142 19 -198 28
-32 98 -65 126 -59 12 2 35 7 52 10 42 8 100 69 113 119 11 44 2 101 -22 139
-38 58 -131 87 -200 62z"/>
<path d="M4565 8019 c-35 -10 -76 -44 -95 -79 -71 -131 48 -286 189 -248 109
30 157 139 107 243 -21 43 -34 55 -73 73 -50 22 -78 24 -128 11z"/>
<path d="M3257 7506 c-2 -6 -3 -145 -3 -308 1 -191 -2 -299 -9 -301 -5 -2
-151 -5 -323 -5 -294 -2 -313 -1 -331 17 -23 23 -58 36 -90 32 -110 -13 -149
-186 -57 -246 37 -24 75 -24 127 -1 44 21 59 22 365 21 l319 0 0 -1235 0
-1235 73 -3 72 -3 1 33 c0 18 0 574 1 1236 l0 1202 149 0 c112 0 149 -3 149
-12 0 -7 1 -565 1 -1240 l0 -1228 69 0 c40 0 70 4 71 10 1 19 1 80 -1 88 -1 4
-1 12 0 17 2 13 2 87 0 100 -1 6 -1 15 0 20 2 13 2 87 0 100 -1 6 -1 15 0 20
2 13 2 87 0 100 -1 6 -1 15 0 20 2 13 2 87 0 100 -1 6 -1 15 0 20 2 13 2 87 0
100 -1 6 -1 15 0 20 2 13 2 87 0 100 -1 6 -1 15 0 20 2 13 2 87 0 100 -1 6 -1
15 0 20 2 13 2 87 0 100 -1 6 -1 15 0 20 2 13 2 87 0 100 -1 6 -1 15 0 20 2 9
2 43 0 105 -1 8 0 44 1 80 1 36 0 70 -1 75 -1 6 -1 15 0 20 2 13 2 87 0 100
-1 6 -1 15 0 20 2 13 2 87 0 100 -1 6 -1 15 0 20 2 13 2 87 0 100 -1 6 -1 15
0 20 2 13 2 87 0 100 -1 6 -1 15 0 20 2 13 2 87 0 100 -1 6 -1 15 0 20 2 13 2
87 0 100 -1 6 -1 15 0 20 2 13 2 87 0 100 -1 6 -1 15 0 20 1 6 1 28 1 50 -2
73 -2 108 2 111 2 2 96 5 209 6 200 3 207 2 210 -17 2 -11 3 -570 3 -1242 l-1
-1223 67 0 67 0 1 75 c1 41 2 79 2 83 1 4 0 9 -1 12 -2 6 -2 111 0 125 2 11 2
53 0 160 -1 39 -1 75 0 80 1 6 1 35 1 65 -3 98 -3 165 -1 175 2 11 2 53 0 160
-1 39 -1 75 0 80 2 11 1 86 -3 178 -1 33 1 61 4 63 4 2 4 18 0 35 -3 17 -4 60
-1 96 3 35 4 66 1 68 -4 4 -5 98 -1 120 2 11 2 53 0 160 -1 39 -1 75 0 80 1 6
1 35 1 65 -3 98 -3 165 -1 175 2 11 2 53 0 160 -1 39 -1 75 0 80 2 13 2 108
-1 121 -1 5 -1 23 0 39 l1 30 140 0 c89 0 143 -4 150 -11 8 -8 11 -155 10
-515 -1 -277 -2 -511 -2 -519 1 -8 1 -333 1 -721 l1 -707 37 -3 c21 -2 55 -3
75 -1 l36 3 1 1212 c0 667 0 1224 1 1238 l0 25 313 -1 c292 -1 316 -3 374 -23
61 -21 75 -21 121 1 53 25 68 120 31 187 -36 64 -90 76 -162 36 l-44 -25 -316
1 c-230 0 -317 3 -319 11 -2 7 -4 146 -3 310 l1 297 -76 0 -75 0 0 -307 0
-308 -148 -1 -147 -1 0 31 c1 17 0 61 -2 99 -2 37 -1 67 2 67 3 0 4 21 3 47
-3 71 -5 177 -3 188 4 23 1 116 -4 124 -4 5 -2 11 3 13 5 2 5 13 0 26 -7 20
-15 22 -74 22 l-65 0 0 -232 c1 -128 1 -268 1 -310 l-1 -77 -210 1 c-152 0
-210 3 -211 11 -1 7 -2 145 -2 307 l-2 295 -67 3 -68 3 -1 -73 c0 -40 0 -178
1 -305 0 -128 -3 -234 -7 -234 -37 -6 -286 -3 -289 3 -3 4 -5 65 -5 135 1 141
1 138 0 221 0 31 0 66 0 77 0 11 1 55 1 98 l0 77 -47 1 c-27 0 -58 2 -70 3
-12 1 -24 -2 -26 -8z"/>
<path d="M5290 6580 c-49 -7 -62 -37 -57 -130 3 -41 7 -84 10 -95 3 -11 8 -33
12 -50 27 -120 104 -324 175 -467 87 -176 145 -251 363 -470 111 -112 215
-218 231 -237 52 -62 158 -204 206 -277 52 -79 152 -255 155 -274 0 -3 9 -20
18 -37 10 -18 18 -36 18 -40 1 -5 3 -12 5 -18 21 -65 45 -147 50 -175 16 -89
21 -121 34 -230 6 -47 13 -96 15 -110 8 -56 18 -200 18 -277 -1 -81 -12 -242
-18 -253 -1 -3 -6 -34 -9 -70 -11 -110 -14 -122 -73 -240 -97 -194 -166 -281
-261 -329 -49 -25 -116 -41 -142 -34 -28 8 -34 48 -35 263 -1 207 -5 241 -37
334 -39 114 -82 173 -229 318 -173 170 -293 240 -459 266 -165 26 -421 -46
-549 -155 -41 -35 -130 -153 -115 -153 3 0 2 -6 -3 -12 -40 -52 -83 -280 -78
-413 5 -128 68 -294 139 -367 100 -103 233 -136 391 -97 129 31 254 127 306
234 36 75 46 129 43 229 -4 126 -66 230 -161 267 -158 62 -341 -74 -267 -199
17 -31 71 -64 106 -67 26 -2 64 36 77 78 16 46 42 49 73 7 20 -27 22 -41 19
-96 -2 -26 -69 -81 -107 -89 -92 -17 -233 5 -302 47 -62 38 -72 90 -46 238 20
116 116 222 238 263 46 16 202 18 262 4 107 -26 165 -68 233 -170 42 -62 93
-175 86 -187 -4 -6 -3 -10 2 -10 15 0 21 -182 9 -275 -11 -84 -44 -211 -72
-277 -25 -60 -92 -170 -131 -214 -100 -115 -203 -208 -373 -339 -47 -36 -89
-69 -95 -73 -5 -4 -53 -39 -105 -77 -52 -38 -99 -73 -105 -77 -5 -4 -82 -61
-170 -127 -88 -66 -183 -141 -210 -168 -64 -61 -141 -155 -150 -182 -3 -12
-11 -19 -16 -16 -8 5 -6 31 5 70 1 6 8 30 15 55 7 25 25 81 39 125 14 44 26
82 27 85 2 16 70 197 77 205 4 5 8 15 8 21 0 22 127 289 178 374 9 15 32 53
51 85 18 31 49 77 68 102 l35 45 -90 87 c-71 69 -97 101 -127 162 -46 96 -50
120 -49 299 2 206 40 361 132 532 42 79 117 181 198 269 86 92 104 117 92 121
-29 10 -1638 3 -1637 -7 0 -5 22 -33 48 -61 26 -28 58 -66 71 -85 13 -19 27
-36 30 -39 22 -18 112 -148 151 -217 135 -238 171 -620 76 -808 -29 -59 -54
-91 -135 -174 l-74 -76 19 -35 c10 -19 20 -37 24 -40 27 -23 229 -389 229
-415 0 -3 8 -24 19 -48 37 -86 144 -362 163 -422 8 -28 19 -76 38 -170 7 -36
7 -38 -6 -20 -84 116 -197 221 -389 363 -60 45 -123 92 -139 104 -16 13 -52
39 -80 58 -28 19 -57 42 -66 50 -9 8 -32 26 -53 40 -20 14 -37 28 -37 33 0 4
-6 7 -12 7 -7 0 -27 14 -45 30 -18 17 -36 30 -42 30 -5 0 -11 3 -13 8 -1 4
-42 37 -89 74 -112 87 -224 199 -274 273 -22 33 -43 62 -47 65 -4 3 -27 48
-52 100 -39 85 -63 166 -72 240 -1 14 -6 50 -10 80 -18 134 1 281 48 374 33
65 114 163 149 180 8 3 29 15 47 26 17 11 42 22 55 24 12 3 39 10 59 15 100
24 281 -9 356 -66 72 -55 128 -189 127 -308 -1 -86 -18 -114 -90 -149 -87 -42
-208 -53 -290 -26 -38 13 -79 59 -89 103 -8 34 17 85 47 96 19 8 25 3 45 -35
39 -75 100 -86 165 -30 51 44 45 139 -10 188 -59 51 -174 68 -243 35 -126 -61
-173 -183 -146 -381 14 -104 60 -184 140 -244 45 -34 116 -76 138 -82 4 -1 29
-10 56 -19 33 -12 74 -18 123 -17 190 4 294 81 367 273 49 131 58 218 36 356
-8 51 -17 99 -21 107 -3 8 -5 19 -4 23 2 13 -35 120 -59 168 -51 99 -190 204
-331 249 -96 31 -106 33 -226 36 -110 3 -177 -8 -243 -39 -33 -15 -164 -98
-170 -107 -3 -4 -12 -11 -21 -16 -66 -37 -210 -178 -261 -256 -62 -93 -111
-218 -125 -318 -6 -48 -6 -184 1 -250 6 -66 -10 -175 -30 -191 -26 -22 -165
32 -232 91 -34 30 -102 116 -102 129 0 5 -3 11 -7 13 -9 3 -95 175 -113 222
-6 16 -13 45 -16 65 -2 20 -9 56 -14 81 -23 115 -31 339 -16 450 3 25 8 70 11
100 13 139 25 246 31 274 3 12 7 32 9 46 2 14 18 79 35 145 39 153 92 263 233
489 14 23 11 19 79 111 104 140 233 283 414 456 54 52 117 119 154 165 96 119
265 475 304 640 30 125 41 302 21 323 -11 11 -212 8 -227 -3 -8 -6 -18 -24
-23 -41 -5 -16 -9 -32 -11 -35 -1 -3 -5 -16 -9 -30 -9 -29 -120 -245 -135
-263 -6 -6 -27 -34 -47 -62 -37 -50 -182 -222 -238 -281 -16 -17 -50 -55 -75
-85 -25 -29 -54 -63 -65 -75 -26 -28 -50 -56 -160 -184 -49 -58 -94 -110 -100
-116 -14 -15 -83 -96 -205 -239 -56 -66 -114 -133 -129 -150 -15 -16 -42 -50
-61 -75 -19 -25 -40 -49 -46 -55 -21 -20 -144 -185 -144 -194 0 -5 -4 -11 -9
-13 -7 -2 -64 -87 -160 -238 -20 -32 -27 -44 -89 -162 -27 -53 -48 -99 -44
-102 3 -3 0 -6 -6 -6 -7 0 -12 -4 -12 -10 0 -5 -11 -34 -25 -64 -24 -53 -83
-205 -91 -236 -2 -8 -13 -46 -24 -85 -11 -38 -25 -99 -31 -135 -6 -36 -13 -83
-17 -105 -15 -90 -7 -403 13 -507 3 -16 7 -38 9 -50 11 -59 39 -158 71 -246
20 -56 97 -204 115 -222 3 -3 19 -25 35 -49 28 -42 134 -154 201 -211 16 -15
70 -55 119 -90 50 -36 92 -67 95 -70 3 -3 48 -32 102 -63 191 -113 378 -191
598 -247 47 -12 92 -24 100 -27 8 -3 20 -7 25 -8 6 -2 96 -28 200 -60 252 -75
362 -108 470 -140 50 -14 97 -29 105 -32 8 -3 20 -7 27 -9 15 -3 83 -24 103
-31 8 -3 20 -7 25 -8 26 -7 271 -88 280 -93 6 -4 18 -8 29 -9 10 -2 47 -17 81
-33 59 -28 97 -60 150 -125 26 -31 132 -263 140 -303 4 -21 2 -22 -13 -10 -9
7 -19 16 -22 19 -10 11 -96 65 -120 76 -14 5 -46 9 -71 8 -115 -7 -219 -145
-207 -276 5 -45 44 -139 59 -139 4 0 11 -9 14 -20 7 -23 73 -91 165 -171 103
-89 165 -142 191 -164 40 -33 142 -118 169 -142 14 -12 36 -31 49 -43 56 -48
97 -40 188 38 37 31 76 64 87 72 10 8 26 22 35 30 9 9 47 43 86 75 38 33 76
67 85 75 9 8 50 44 90 80 168 147 212 212 216 318 7 142 -93 261 -220 264 -49
1 -91 -19 -160 -74 -27 -21 -51 -37 -53 -35 -2 3 1 16 7 31 5 15 12 39 15 53
2 15 27 72 54 128 52 103 104 168 169 209 32 19 229 100 272 112 14 3 130 42
195 65 33 11 36 12 80 23 17 5 61 17 99 28 38 11 76 21 85 23 28 5 123 32 246
69 66 20 127 38 135 40 9 2 99 29 200 60 102 31 196 59 210 61 42 8 152 42
209 64 65 26 334 160 341 170 3 3 16 12 30 19 76 39 215 137 309 217 60 52
127 125 180 194 53 71 105 149 106 161 1 3 13 29 28 58 55 105 106 293 124
457 16 138 7 401 -17 508 -5 23 -11 55 -14 70 -7 41 -62 216 -83 262 -9 22
-17 43 -17 46 -1 3 -12 30 -25 60 -13 30 -35 78 -48 107 -13 28 -34 76 -48
105 -14 30 -25 59 -25 65 0 6 -3 12 -7 14 -5 2 -19 23 -32 48 -24 45 -119 191
-130 200 -4 3 -31 37 -61 75 -75 95 -74 94 -85 108 -6 7 -64 80 -130 162 -66
83 -122 152 -125 155 -3 3 -30 37 -61 75 -31 39 -65 80 -75 92 -11 12 -30 36
-44 53 -14 18 -32 40 -41 49 -8 9 -37 43 -65 76 -27 32 -56 66 -64 75 -8 9
-42 47 -75 84 -33 37 -71 80 -85 95 -200 220 -227 251 -260 291 -82 101 -117
147 -123 163 -3 9 -11 17 -16 17 -5 0 -13 9 -16 21 -4 12 -17 36 -30 55 -25
36 -116 217 -119 237 -7 40 -29 86 -44 89 -9 3 -43 4 -75 4 -31 -1 -58 1 -60
4 -1 3 -18 3 -37 0z"/>
</g>
</svg>
